<?xml version="1.0" encoding="UTF-8"?>
<svg version="1.1" xmlns="http://www.w3.org/2000/svg" width="500" height="500">
<path d="M0 0 C165 0 330 0 500 0 C500 165 500 330 500 500 C335 500 170 500 0 500 C0 335 0 170 0 0 Z " fill="#433B60" transform="translate(0,0)"/>
<path d="M0 0 C3.48952881 1.16701054 6.95740036 2.38441683 10.42285156 3.62109375 C11.71700432 4.07640123 13.01144323 4.53089611 14.30615234 4.98461914 C16.95047399 5.91217279 19.59340003 6.84355003 22.23535156 7.77783203 C26.74721957 9.37096491 31.27152722 10.92736179 35.79638672 12.4831543 C46.57164007 16.18961931 57.31387538 19.98480147 68.04785156 23.80859375 C76.79465356 26.92439034 85.5472436 30.00763127 94.36889648 32.90600586 C101.2221705 35.16164781 108.0416507 37.51323834 114.86035156 39.87109375 C115.98932861 40.26055176 117.11830566 40.65000977 118.28149414 41.05126953 C119.3452124 41.41978027 120.40893066 41.78829102 121.50488281 42.16796875 C122.45339111 42.49635742 123.40189941 42.82474609 124.37915039 43.16308594 C126.96202947 44.09028542 129.50684651 45.08521866 132.04785156 46.12109375 C129.13876928 48.06048194 126.63922777 49.08884332 123.36035156 50.24609375 C122.36648438 50.59929687 121.37261719 50.9525 120.34863281 51.31640625 C119.589375 51.58195312 118.83011719 51.8475 118.04785156 52.12109375 C117.89728442 57.11567601 117.78961766 62.1088817 117.71826172 67.10522461 C117.68845713 68.7975165 117.64779743 70.48965914 117.59521484 72.18139648 C117.26845846 82.98037469 118.09686955 91.29636075 122.74853516 101.13256836 C124.04785156 104.12109375 124.04785156 104.12109375 124.04785156 108.12109375 C116.78785156 108.12109375 109.52785156 108.12109375 102.04785156 108.12109375 C102.9487965 103.61636907 104.18864447 100.52095073 106.08691406 96.3984375 C109.74630467 87.80474986 109.74657319 79.8852283 109.42285156 70.68359375 C109.39264706 69.16216348 109.36529013 67.64067393 109.34082031 66.11914062 C109.27580707 62.45185838 109.17289806 58.7868799 109.04785156 55.12109375 C107.38689453 55.70503906 107.38689453 55.70503906 105.69238281 56.30078125 C100.14664762 58.24788994 94.59758218 60.18540634 89.04785156 62.12109375 C87.18604248 62.77102295 87.18604248 62.77102295 85.28662109 63.43408203 C81.98913391 64.58447371 78.69031702 65.73098986 75.39071655 66.87530518 C74.07818477 67.33104679 72.76603009 67.78787593 71.45425415 68.24578857 C69.59844975 68.89334436 67.7411489 69.53660671 65.88378906 70.1796875 C64.80661621 70.55407959 63.72944336 70.92847168 62.61962891 71.31420898 C60.04785156 72.12109375 60.04785156 72.12109375 58.04785156 72.12109375 C58.04785156 76.74109375 58.04785156 81.36109375 58.04785156 86.12109375 C14.48785156 86.12109375 -29.07214844 86.12109375 -73.95214844 86.12109375 C-73.95214844 81.50109375 -73.95214844 76.88109375 -73.95214844 72.12109375 C-75.37011719 71.76402344 -76.78808594 71.40695313 -78.24902344 71.0390625 C-87.05253506 68.6356757 -95.60557447 65.47917675 -104.20214844 62.43359375 C-105.98976474 61.80346471 -107.77752601 61.17374679 -109.56542969 60.54443359 C-113.08222659 59.30632114 -116.59845442 58.06661425 -120.11425781 56.82568359 C-126.38693033 54.61338321 -132.66832607 52.4265205 -138.95214844 50.24609375 C-139.89348633 49.91907471 -140.83482422 49.59205566 -141.8046875 49.25512695 C-143.85369712 48.5433678 -145.90289461 47.8321495 -147.95214844 47.12109375 C-145.3908709 44.55981621 -143.23794507 44.17881914 -139.76464844 43.18359375 C-135.66035918 42.00343141 -131.80880227 40.65009389 -127.90258789 38.92700195 C-123.90186813 37.27393199 -119.75430606 36.02008509 -115.63964844 34.68359375 C-105.46602301 31.33672347 -95.35747838 27.82707731 -85.26464844 24.24609375 C-74.50835187 20.43183611 -63.7442356 16.64575002 -52.95214844 12.93359375 C-51.78748047 12.53293701 -50.6228125 12.13228027 -49.42285156 11.71948242 C-47.10637464 10.92307195 -44.78980642 10.12692696 -42.47314453 9.33105469 C-36.40207357 7.24478179 -30.33282805 5.15326002 -24.26464844 3.05859375 C-23.15283203 2.67614502 -22.04101562 2.29369629 -20.89550781 1.8996582 C-19.87908203 1.54863037 -18.86265625 1.19760254 -17.81542969 0.8359375 C-16.92122314 0.527771 -16.0270166 0.21960449 -15.10571289 -0.09790039 C-9.51305558 -2.12611836 -5.76021077 -1.71491555 0 0 Z " fill="#C6B7EB" transform="translate(257.9521484375,104.87890625)"/>
<path d="M0 0 C42.9 0 85.8 0 130 0 C128.87167553 12.41156915 128.87167553 12.41156915 128.1328125 18.0390625 C127.97200195 19.26971436 127.81119141 20.50036621 127.64550781 21.76831055 C127.28981523 24.40380575 126.92874802 27.03784519 126.55761719 29.67114258 C126.46383789 30.33697861 126.37005859 31.00281464 126.2734375 31.68882751 C126.180625 32.34710037 126.0878125 33.00537323 125.9921875 33.68359375 C125.42394413 37.71893779 124.90429673 41.71926994 124.6328125 45.78515625 C123.18105679 60.58417616 113.82887871 72.77153987 106 85 C104.77391041 86.93827782 103.54859965 88.87704862 102.32421875 90.81640625 C100.04626769 94.41261603 97.75191429 97.99772226 95.44921875 101.578125 C91.76741693 107.32850841 88.22178833 113.15814988 84.6875 119 C73.10787654 138.11849934 73.10787654 138.11849934 69 144 C68.67 144 68.34 144 68 144 C67.8145129 135.09015233 67.67243325 126.18097045 67.58550262 117.26961231 C67.54377579 113.13143976 67.48720095 108.99458927 67.39648438 104.85717773 C67.30945729 100.8629684 67.261707 96.87002899 67.24098206 92.87494469 C67.22621705 91.35214933 67.19738108 89.82942242 67.15415955 88.30716896 C66.82765403 76.32962439 66.82765403 76.32962439 69.74633789 73.01937866 C71.79007965 71.75366412 73.78128308 70.90511077 76 70 C79.47094678 66.35550589 80.30095472 63.46479739 80.5625 58.5625 C80.38959952 53.86216853 79.38792267 51.0051246 76.484375 47.33984375 C72.09827043 43.38080726 67.59127417 43.57693619 61.91796875 43.6875 C57.94324717 44.11317299 55.85616932 45.21706579 53 48 C49.45422245 52.96408857 49.1627692 58.10089104 50 64 C51.48147941 67.27160035 52.55052951 69.40419979 55.9666748 70.80839539 C58.596561 71.8964645 60.10579962 72.85406269 62 75 C63.1714676 80.17352573 62.93077848 85.31566954 62.78125 90.58203125 C62.76631992 92.12185219 62.7549365 93.66171126 62.74694824 95.20158386 C62.71647216 99.24516626 62.63795569 103.28643171 62.54931641 107.32910156 C62.46732266 111.45801446 62.43090836 115.58730367 62.390625 119.71679688 C62.30495053 127.8122586 62.16850593 135.90584072 62 144 C59.39070973 141.48095184 57.59358015 138.93402484 55.69921875 135.828125 C55.05895752 134.78293701 54.41869629 133.73774902 53.7590332 132.66088867 C53.07542725 131.53529541 52.39182129 130.40970215 51.6875 129.25 C50.96936008 128.07440203 50.25084927 126.89903055 49.53198242 125.72387695 C47.34915746 122.15258729 45.1741525 118.57657353 43 115 C41.76305633 112.96742632 40.52607928 110.93487294 39.2890625 108.90234375 C37.55661102 106.05498639 35.82457781 103.20737974 34.09399414 100.35888672 C30.68651247 94.75430297 27.2585461 89.16304683 23.8046875 83.58691406 C22.69949693 81.80254533 21.59656812 80.0167734 20.49609375 78.22949219 C18.20983941 74.52285968 15.9123816 70.83575592 13.48046875 67.22265625 C12.76503906 66.13855469 12.04960937 65.05445313 11.3125 63.9375 C10.71050781 63.05964844 10.10851562 62.18179688 9.48828125 61.27734375 C7.24895543 56.34612495 6.73377653 51.33845297 6 46 C5.80007225 44.6427408 5.5984126 43.28573588 5.39526367 41.92895508 C4.83957139 38.20293096 4.30047775 34.47474294 3.76782227 30.74536133 C3.43745879 28.43721209 3.10260155 26.1297425 2.76757812 23.82226562 C2.55180884 22.31774767 2.3363051 20.81319161 2.12109375 19.30859375 C1.9741935 18.30184853 1.9741935 18.30184853 1.82432556 17.27476501 C1.00895831 11.51357653 0.52907977 5.81987749 0 0 Z " fill="#B4A1E4" transform="translate(185,202)"/>
<path d="M0 0 C7.04102575 1.92027975 11.41613315 7.77331108 15.1875 13.6875 C19.01787844 20.53699711 22.5746005 27.36375784 21.57421875 35.37890625 C20.69673378 42.26933271 20.69673378 42.26933271 22 49 C26.22726124 53.81415285 32.49832218 56.24997041 38.25048828 58.78076172 C40.89964607 59.95549924 43.47642573 61.22062549 46.05859375 62.53515625 C55.63167708 67.35644679 65.4744313 71.58819276 75.375 75.6875 C76.42703613 76.13424072 77.47907227 76.58098145 78.56298828 77.04125977 C86.8780657 80.39831614 91.4538261 80.07786545 99.7734375 76.77734375 C101.97817547 75.8405932 104.1785265 74.89346824 106.375 73.9375 C107.53459229 73.43798828 108.69418457 72.93847656 109.88891602 72.42382812 C113.26496947 70.96183347 116.63386815 69.4846758 120 68 C120.84578613 67.62891113 121.69157227 67.25782227 122.56298828 66.87548828 C132.05305982 62.67847073 141.03199567 57.83666607 149.93530273 52.50390625 C150.69786377 52.04886719 151.4604248 51.59382813 152.24609375 51.125 C152.92341553 50.71507812 153.6007373 50.30515625 154.29858398 49.8828125 C156 49 156 49 158 49 C157.67 48.21625 157.34 47.4325 157 46.625 C154.11543012 36.16843418 156.88900336 26.42737881 161.625 17 C161.97401367 16.30447021 162.32302734 15.60894043 162.68261719 14.89233398 C165.54784641 9.41902795 168.83908326 4.56710422 174 1 C176.234375 0.30859375 176.234375 0.30859375 178 0 C182.55143166 12.48934521 182.25423918 25.63054467 176.6875 37.890625 C175.52786769 39.98586974 174.33156581 42.01054595 173 44 C173.92039062 43.95359375 174.84078125 43.9071875 175.7890625 43.859375 C189.53159616 43.46753086 201.31757962 46.42806087 213 54 C213.66 54.66 214.32 55.32 215 56 C214.921875 57.98828125 214.921875 57.98828125 214 60 C211.890625 61.23046875 211.890625 61.23046875 209.25 62.1875 C208.38890625 62.51105469 207.5278125 62.83460938 206.640625 63.16796875 C195.69610424 66.6164642 180.28139622 67.24291325 169.83984375 62.16796875 C168 61 168 61 166.00390625 59.30078125 C164.13382512 57.77370136 164.13382512 57.77370136 162.15820312 58.26831055 C159.74266856 59.08724234 157.68651404 60.15207018 155.46484375 61.40625 C154.58256104 61.89851074 153.70027832 62.39077148 152.79125977 62.89794922 C151.84951904 63.42662598 150.90777832 63.95530273 149.9375 64.5 C135.04872129 72.73185341 119.8984048 79.94006992 104 86 C114.60122528 89.45459861 125.19225228 92.71394904 136.03051758 95.3503418 C141.79048826 96.79048826 141.79048826 96.79048826 144 99 C144.1875 101.5625 144.1875 101.5625 144 104 C143 105 143 105 139.1875 105.23828125 C133.2299386 105.16876066 127.73097913 103.70642492 122 102.1875 C120.97132813 101.92646484 119.94265625 101.66542969 118.8828125 101.39648438 C110.778183 99.3084596 102.87609308 96.93840851 95.21484375 93.55078125 C87.67046811 91.67466667 81.35958531 93.86354064 74.25 96.3125 C72.30434344 96.9599175 70.35773239 97.60447389 68.41015625 98.24609375 C67.48090332 98.55272949 66.55165039 98.85936523 65.59423828 99.17529297 C61.4252683 100.50060641 57.2165939 101.53035401 52.94921875 102.4921875 C51.00929629 102.82203671 51.00929629 102.82203671 50 104 C44.9301448 104.93119789 40.12881696 105.08997924 35 105 C34.375 102.125 34.375 102.125 34 99 C36.31718097 96.68281903 37.55716259 96.43392796 40.69921875 95.66796875 C41.65497803 95.42900879 42.6107373 95.19004883 43.59545898 94.94384766 C44.61583252 94.69425293 45.63620605 94.4446582 46.6875 94.1875 C55.9587032 91.85396629 64.99612081 89.21465513 74 86 C73.46334717 85.77449463 72.92669434 85.54898926 72.3737793 85.31665039 C37.36398563 70.56414258 37.36398563 70.56414258 22.42871094 61.01000977 C18.95322987 58.63207722 18.95322987 58.63207722 14.93945312 58.31689453 C12.48568127 59.18115103 10.2463515 60.30204387 7.9375 61.5 C1.4796387 64.84060795 -3.38583148 65.21220319 -10.5625 65.25 C-11.51447266 65.270625 -12.46644531 65.29125 -13.44726562 65.3125 C-21.95642916 65.3588399 -29.90041087 63.96971239 -37 59 C-35.4604648 54.84325495 -32.69169658 52.28076987 -29 50 C-19.97780383 45.90733922 -12.03374426 43.81268055 -2.125 43.9375 C-1.43664062 43.94201172 -0.74828125 43.94652344 -0.0390625 43.95117188 C1.64066335 43.96283664 3.32034375 43.98076729 5 44 C4.66226563 43.47792969 4.32453125 42.95585937 3.9765625 42.41796875 C-1.43950497 33.47989209 -2.15358587 24.93746215 -2.25 14.6875 C-2.25942627 13.92252197 -2.26885254 13.15754395 -2.27856445 12.36938477 C-2.25244347 7.86228303 -1.70041897 4.24429973 0 0 Z " fill="#9E86DC" transform="translate(161,322)"/>
<path d="M0 0 C4.15539245 1.38513082 4.82056198 3.51520445 6.79296875 7.28125 C10.9708276 16.69157284 12.9408512 27.9441862 10 38 C10.66386719 37.79503906 11.32773437 37.59007812 12.01171875 37.37890625 C12.89472656 37.10949219 13.77773438 36.84007812 14.6875 36.5625 C15.55761719 36.29566406 16.42773438 36.02882813 17.32421875 35.75390625 C27.75946903 32.81375544 37.85835824 33.15395978 48 37 C48 41 48 41 46.671875 42.74609375 C40.99345701 47.74356324 35.09794943 50.48327555 28 53 C26.783125 53.433125 25.56625 53.86625 24.3125 54.3125 C17.08749224 55.81202991 10.55217924 55.61856052 4 52 C-2.56075443 47.68213602 -6.3847046 42.73322671 -8 35 C-9.23132706 22.71238205 -7.97752468 9.97190585 0 0 Z " fill="#A68FDE" transform="translate(362,298)"/>
<path d="M0 0 C3 1 3 1 4.5703125 3.58203125 C5.08335937 4.64808594 5.59640625 5.71414063 6.125 6.8125 C6.90230469 8.39998047 6.90230469 8.39998047 7.6953125 10.01953125 C11.46491117 18.63091983 11.24755333 29.88937256 9.38671875 39.00390625 C6.87978798 45.35406127 1.91598353 49.82960282 -3.98046875 53.09765625 C-13.53712828 57.19881753 -22.67092688 54.67508941 -32 51 C-37.7374606 48.1585168 -42.87955882 44.94452942 -47 40 C-47 39.34 -47 38.68 -47 38 C-37.9987382 33.18537159 -28.22243379 32.56805917 -18.265625 34.859375 C-10.54741379 37.2262931 -10.54741379 37.2262931 -7 39 C-7.33 38.01 -7.66 37.02 -8 36 C-9.2870505 22.74663825 -8.51357788 10.78552975 0 0 Z " fill="#A68FDE" transform="translate(136,298)"/>
<path d="M0 0 C3.56027498 1.18675833 3.81954471 1.87709896 5.5625 5.0625 C5.97628906 5.79597656 6.39007813 6.52945312 6.81640625 7.28515625 C9.91423758 14.39074297 10.26927447 20.86455103 10.125 28.5 C10.11597656 29.4178125 10.10695313 30.335625 10.09765625 31.28125 C10.07432432 33.52111556 10.04159235 35.76041183 10 38 C11.051875 37.525625 12.10375 37.05125 13.1875 36.5625 C23.32600176 32.25601445 36.08918643 32.68957939 46.375 36.34375 C46.91125 36.5603125 47.4475 36.776875 48 37 C48 41 48 41 45.5 43.8125 C35.68050078 51.52218714 24.2416883 55.47505789 11.8046875 54.625 C4.98132799 53.50411959 1.31057776 50.37138244 -3.375 45.5625 C-7.46608326 39.1111764 -8.55400291 33.91452568 -8.5 26.375 C-8.49718018 25.49851807 -8.49436035 24.62203613 -8.49145508 23.71899414 C-8.29373051 15.7093115 -6.91319417 7.3164273 -1.33203125 1.16015625 C-0.89246094 0.77730469 -0.45289063 0.39445312 0 0 Z " fill="#AB96E0" transform="translate(392,267)"/>
<path d="M0 0 C0.99 0 1.98 0 3 0 C3.98753064 1.72440365 4.96468806 3.45475026 5.9375 5.1875 C6.48277344 6.15042969 7.02804688 7.11335938 7.58984375 8.10546875 C10.38931298 13.8517477 10.21304507 19.53478163 10.25 25.8125 C10.270625 26.67681641 10.29125 27.54113281 10.3125 28.43164062 C10.35437974 35.36797276 9.50883427 41.08919781 4.87890625 46.4609375 C4.11449219 47.09257812 3.35007813 47.72421875 2.5625 48.375 C1.80066406 49.02210938 1.03882813 49.66921875 0.25390625 50.3359375 C-6.59921435 55.39560713 -14.77410701 54.96389872 -23 54 C-31.90294183 51.55777224 -39.90394503 46.99253364 -46 40 C-46 39.01 -46 38.02 -46 37 C-35.71827418 32.43034408 -22.95179044 32.15015788 -12.375 36 C-10.90322531 36.63644311 -9.43798586 37.29050918 -8 38 C-8.04640625 36.77925781 -8.0928125 35.55851562 -8.140625 34.30078125 C-8.45771085 22.32347298 -8.4406598 9.5297772 0 0 Z " fill="#AB96E0" transform="translate(106,267)"/>
<path d="M0 0 C6.78553262 2.91017455 10.42534821 9.90884929 13.1875 16.48046875 C14.71162232 21.20671343 15.36812986 26.08637824 16 31 C16.65226562 30.66226562 17.30453125 30.32453125 17.9765625 29.9765625 C18.85054688 29.53054688 19.72453125 29.08453125 20.625 28.625 C21.48351562 28.18414062 22.34203125 27.74328125 23.2265625 27.2890625 C28.89449017 24.65467358 33.41096102 23.74380156 39.6875 23.8125 C40.99074219 23.81894531 42.29398437 23.82539063 43.63671875 23.83203125 C47 24 47 24 50 25 C46.97904759 33.81111119 40.71083945 37.51308911 33 42 C31.906875 42.639375 30.81375 43.27875 29.6875 43.9375 C23.20911766 45.80415254 15.87749637 46.4473604 9.45703125 44.05078125 C3.83384063 40.70640709 -0.00802813 36.28237283 -2 30 C-2.98394998 25.15925337 -3.21520699 20.48136166 -3.25 15.5625 C-3.270625 14.83740234 -3.29125 14.11230469 -3.3125 13.36523438 C-3.34980735 8.17484971 -2.32474369 4.64336962 0 0 Z " fill="#B09CE1" transform="translate(407,243)"/>
<path d="M0 0 C0.99 0.33 1.98 0.66 3 1 C7.58226684 11.22052933 7.06028449 21.96001992 3.265625 32.26171875 C0.29759224 38.6832958 -3.44589347 42.28876888 -10 45 C-19.2865266 46.23820355 -27.3233806 45.53785976 -35 40 C-39.49543402 36.36931708 -43.78089983 32.82865025 -47 28 C-46.625 25.8125 -46.625 25.8125 -46 24 C-33.38837462 23.37975613 -23.64031918 24.56271376 -13 32 C-12.92523438 31.05640625 -12.85046875 30.1128125 -12.7734375 29.140625 C-11.63315028 18.00605565 -9.04678666 7.45029489 0 0 Z " fill="#B09CE2" transform="translate(91,243)"/>
<path d="M0 0 C6.60471578 2.89680517 10.66955464 8.58848604 13.375 15.125 C14.67179629 18.71612819 15.59862444 22.18693216 16 26 C16.4846875 25.60167969 16.969375 25.20335937 17.46875 24.79296875 C26.26166935 17.84318057 32.81009327 16.4964542 44 17 C43.17126506 22.90345755 40.30377078 26.04393063 36 30 C28.37939203 35.34941316 22.34290807 37.78830787 13 37 C8.01818402 35.3080625 4.65611347 32.52161123 2 28 C-1.77468687 19.47928989 -3.50614312 11.4597688 -1 2.375 C-0.67 1.59125 -0.34 0.8075 0 0 Z " fill="#B4A1E2" transform="translate(422,220)"/>
<path d="M0 0 C0.99 0.33 1.98 0.66 3 1 C5.70171407 9.1051422 4.7211433 19.33575047 1 27 C-2.30019293 31.84843159 -5.31280103 35.20720274 -11 37 C-19.01733092 38.43121389 -24.57833172 36.32523665 -31.32421875 32.01171875 C-35.889451 28.57946384 -38.86238302 24.70642546 -42 20 C-42 19.01 -42 18.02 -42 17 C-31.1683291 16.37775508 -22.86096028 18.73792472 -14 25 C-13.78085937 24.23816406 -13.56171875 23.47632813 -13.3359375 22.69140625 C-10.61532969 13.83284179 -7.05139212 6.23776996 0 0 Z " fill="#B4A2E2" transform="translate(76,220)"/>
<path d="M0 0 C0.99 0.33 1.98 0.66 3 1 C3.72683248 10.30749365 2.0185103 18.69975389 -4 26.0625 C-6.86624974 29.24808734 -9.46624054 30.77212717 -13.734375 31.40625 C-20.18868966 31.60690227 -24.26524628 31.18463689 -29.18359375 26.8515625 C-40 15.82580645 -40 15.82580645 -40 10 C-31.43407859 9.20685913 -25.03712362 12.40808128 -18.375 17.6875 C-17.59125 18.450625 -16.8075 19.21375 -16 20 C-16 20.66 -16 21.32 -16 22 C-15.34 22 -14.68 22 -14 22 C-13.95875 21.030625 -13.9175 20.06125 -13.875 19.0625 C-12.77275482 11.49987337 -7.17266064 5.72934649 -1.61328125 0.8984375 C-1.08089844 0.60195312 -0.54851562 0.30546875 0 0 Z " fill="#B8A7E4" transform="translate(67,197)"/>
<path d="M0 0 C9.58148447 3.42312864 13.6768354 11.24282042 18 20 C18.556875 19.52949219 19.11375 19.05898437 19.6875 18.57421875 C26.86738067 12.71630935 32.6263319 9.41414574 42 10 C40.86858721 17.39969972 36.69456118 22.99620777 30.8125 27.5 C25.00262605 31.62535429 18.95453124 31.93687986 12 31 C6.53212768 28.28545346 3.53631207 23.36527553 1 18 C-0.03746865 14.02642728 -0.10387118 10.28324673 -0.0625 6.1875 C-0.05347656 5.02605469 -0.04445313 3.86460937 -0.03515625 2.66796875 C-0.02355469 1.78753906 -0.01195312 0.90710938 0 0 Z " fill="#B8A7E4" transform="translate(431,197)"/>
<path d="M0 0 C0.59878415 8.08358603 -1.42184496 15.11312556 -6.5625 21.5 C-10.1621115 25.19190923 -12.48488678 26.3895957 -17.5625 26.6875 C-24.18129558 26.58320383 -27.39053447 24.15016262 -31.9296875 19.5234375 C-35.30653226 15.40750973 -38 11.49586912 -38 6 C-29.10365577 6.56785176 -22.49546097 11.17074015 -16 17 C-15.9175 16.46375 -15.835 15.9275 -15.75 15.375 C-13.74777467 9.03461977 -9.14759231 4.89239123 -4 1 C-2 0 -2 0 0 0 Z " fill="#BCACE4" transform="translate(61,171)"/>
<path d="M0 0 C7.67303622 2.87738858 12.27220081 9.5742915 17 16 C17.4125 15.61328125 17.825 15.2265625 18.25 14.828125 C23.14692086 10.41215172 28.23861289 6.31344893 35 5.75 C35.66 5.8325 36.32 5.915 37 6 C36.22615391 14.12538392 31.64549234 19.23565866 25.63671875 24.41015625 C20.8983216 27.26723423 16.3063011 27.12787284 11 26 C5.55485782 23.59805105 3.14112353 18.24849768 1 13 C-0.00496852 9.98509443 -0.10335303 7.95818308 -0.0625 4.8125 C-0.05347656 3.91144531 -0.04445313 3.01039063 -0.03515625 2.08203125 C-0.02355469 1.39496094 -0.01195312 0.70789063 0 0 Z " fill="#BDADE5" transform="translate(440,171)"/>
<path d="M0 0 C-0.21973254 8.62949598 -3.02248936 13.5971307 -8.625 20 C-13.45281687 22.86092852 -17.52638905 23.09153523 -23 22 C-29.35333498 18.94802413 -32.70558853 12.40743479 -35 6 C-35 4.68 -35 3.36 -35 2 C-27.55974721 2.7085955 -22.88584865 6.53934563 -18 12 C-18 12.66 -18 13.32 -18 14 C-17.34 14 -16.68 14 -16 14 C-15.7525 12.9790625 -15.7525 12.9790625 -15.5 11.9375 C-12.80849202 6.66663021 -6.11419062 0 0 0 Z " fill="#C0B1E6" transform="translate(57,150)"/>
<path d="M0 0 C7.14456091 1.09916322 11.85785836 6.52211888 16 12 C16.33 12.66 16.66 13.32 17 14 C17.50789063 13.38511719 18.01578125 12.77023438 18.5390625 12.13671875 C25.60619062 3.83879865 25.60619062 3.83879865 31 2 C32.32 2 33.64 2 35 2 C34.52358673 9.62261228 31.3348957 14.33154778 26.375 20 C21.55428518 22.85671989 17.46620601 23.1043643 12 22 C6.33060847 19.13403921 2.99473846 13.89653458 1 8 C0.45660806 5.30146036 0.19682552 2.75555734 0 0 Z " fill="#C1B2E6" transform="translate(443,150)"/>
<path d="M0 0 C5.94818438 0.55331948 8.98027736 2.63204931 12.8125 7.125 C14 9 14 9 14 11 C14.66 11 15.32 11 16 11 C16.25136719 10.41734375 16.50273438 9.8346875 16.76171875 9.234375 C18.15667703 6.71728941 19.67170175 5.1656665 21.8125 3.25 C22.47894531 2.63640625 23.14539063 2.0228125 23.83203125 1.390625 C26.42537692 -0.27285439 27.97623542 -0.27440795 31 0 C30.7294259 6.4937783 28.39812424 10.27381055 24 15 C20.89551697 17.58706919 18.97497524 18.83750413 15 19.5 C9.75164626 18.62527438 6.4297069 15.821392 3.1875 11.75 C0.59326371 7.91684959 0.24058199 4.5710579 0 0 Z " fill="#C3B5E6" transform="translate(23,131)"/>
<path d="M0 0 C5.35995109 0.33499694 9.11910334 3.55602548 13 7 C13.99 8.485 13.99 8.485 15 10 C15.54269531 9.44570312 16.08539063 8.89140625 16.64453125 8.3203125 C17.35996094 7.59585938 18.07539063 6.87140625 18.8125 6.125 C19.52019531 5.40570313 20.22789062 4.68640625 20.95703125 3.9453125 C24.18257272 0.87395561 25.43385306 0 30 0 C30.64465319 5.15722555 29.23067046 8.01788878 26.4375 12.16796875 C24.07189736 15.18282646 21.41181409 17.29409296 18 19 C14.26541581 19.42438457 12.31333729 19.15986596 8.9375 17.4375 C4.18599971 13.49476572 0.98578866 9.8268485 0.1875 3.5625 C0.125625 2.386875 0.06375 1.21125 0 0 Z " fill="#C3B5E6" transform="translate(447,131)"/>
<path d="M0 0 C3.30915581 0.61445175 5.39416703 1.78168782 8.0625 3.8125 C8.73410156 4.31394531 9.40570313 4.81539063 10.09765625 5.33203125 C12.06675468 7.05853028 13.50712885 8.8560324 15 11 C15.37511719 10.52949219 15.75023437 10.05898437 16.13671875 9.57421875 C19.09528452 5.97475461 21.6572694 2.94280053 26 1 C27.32 1 28.64 1 30 1 C29.68631052 7.1169448 26.73943707 11.35982261 23 16 C20.11413606 18.44188487 18.39588848 18.92530406 14.6875 19.625 C9.36269703 18.72249102 6.48136467 16.02238756 3 12 C0.58858699 8.19800548 -0.41100309 4.52103395 0 0 Z " fill="#C5B8E6" transform="translate(23,112)"/>
<path d="M0 0 C-0.34913718 6.51722734 -1.85141617 10.90216394 -6 16 C-8.84976543 18.39980247 -10.65371064 18.93466239 -14.3125 19.625 C-19.63368136 18.72310485 -22.4625304 15.95176784 -26 12 C-28.44223074 8.18401446 -29.39919735 5.52423668 -29 1 C-22.46969546 2.19944369 -19.33271206 5.07466774 -15 10 C-14.34 9.278125 -13.68 8.55625 -13 7.8125 C-9.73733032 4.5404817 -4.80095906 0 0 0 Z " fill="#C6B9E7" transform="translate(477,112)"/>
<path d="M0 0 C5.28534706 0.32032406 8.43220064 3.38726614 12 7 C12.99 8.485 12.99 8.485 14 10 C14.53625 9.2575 15.0725 8.515 15.625 7.75 C18.1938265 4.77556932 20.58029506 2.92358403 24 1 C25.32 1 26.64 1 28 1 C27.7348376 7.36389753 25.46680217 11.44951067 21 16 C17.24548969 18.27188443 14.38571833 18.52931083 10 18 C4.80862877 14.74266903 2.02687243 10.77775129 0 5 C-0.25 2 -0.25 2 0 0 Z " fill="#C8BDE6" transform="translate(24,95)"/>
<path d="M0 0 C-0.24408833 6.83447318 -2.11560623 11.12704509 -7 16 C-10.47814577 18.07208684 -12.93871628 18.48735405 -17 18 C-21.77643651 15.51625301 -24.48549749 12.74961586 -27 8 C-27.75 4.125 -27.75 4.125 -28 1 C-22.34106967 1.40420931 -19.97742206 3.20336985 -16 7 C-15.01 8.485 -15.01 8.485 -14 10 C-13.62488281 9.52949219 -13.24976563 9.05898437 -12.86328125 8.57421875 C-5.81573499 0 -5.81573499 0 0 0 Z " fill="#C9BDE7" transform="translate(476,95)"/>
<path d="M0 0 C3 1 3 1 4.625 3.8125 C6.76089265 8.7638875 7.38275565 12.54573198 7 18 C5.5 20.9375 5.5 20.9375 4 23 C1.02422056 21.97386916 0.02245939 21.03368909 -1.75 18.375 C-3.79744964 12.84688596 -3.76867259 8.3475854 -1.5 3 C-1.005 2.01 -0.51 1.02 0 0 Z " fill="#D1C8E9" transform="translate(459,73)"/>
<path d="M0 0 C3 1 3 1 4.1640625 2.6953125 C5.98049752 7.70324082 6.08149521 14.11246106 4.20703125 19.1171875 C3.1875 20.75 3.1875 20.75 1 23 C0.01 23 -0.98 23 -2 23 C-4.98078179 18.00420971 -4.63238966 12.64003336 -4 7 C-2.94497413 4.25234568 -1.74739064 2.40266213 0 0 Z " fill="#D3CAEA" transform="translate(39,73)"/>
</svg>
